STARTFONT 2.1
FONT -Fondu--Medium-R-Normal--27-260-75-75-P-129-MacRoman-1
SIZE 26 75 75
FONTBOUNDINGBOX 22 27 0 -5
COMMENT Created by Fondu from a mac NFNT/FONT resource
STARTPROPERTIES 17
FOUNDRY "Fondu"
FAMILY_NAME ""
WEIGHT_NAME "Medium"
SLANT "R"
SETWIDTH_NAME "Normal"
ADD_STYLE_NAME ""
PIXEL_SIZE 27
POINT_SIZE 260
RESOLUTION_X 75
RESOLUTION_Y 75
SPACING "P"
AVERAGE_WIDTH 129
CHARSET_REGISTRY "MacRoman"
CHARSET_ENCODING "1"
FONT_ASCENT 22
FONT_DESCENT 5
FACE_NAME "nameless"
ENDPROPERTIES
CHARS 223
STARTCHAR space
ENCODING 32
SWIDTH 185 0
DWIDTH 5 0
BBX 0 0 0 -5
BITMAP
ENDCHAR
STARTCHAR exclam
ENCODING 33
SWIDTH 259 0
DWIDTH 7 0
BBX 2 17 3 0
BITMAP
C0
C0
C0
C0
C0
C0
C0
C0
C0
C0
C0
C0
C0
00
00
C0
C0
ENDCHAR
STARTCHAR quotedbl
ENCODING 34
SWIDTH 333 0
DWIDTH 9 0
BBX 6 5 1 12
BITMAP
CC
CC
CC
CC
CC
ENDCHAR
STARTCHAR numbersign
ENCODING 35
SWIDTH 481 0
DWIDTH 13 0
BBX 11 13 1 4
BITMAP
18C0
18C0
18C0
7FE0
7FE0
3180
3180
3180
FFC0
FFC0
6300
6300
6300
ENDCHAR
STARTCHAR dollar
ENCODING 36
SWIDTH 481 0
DWIDTH 13 0
BBX 11 21 1 -2
BITMAP
0600
0600
1F00
7FC0
66C0
C660
C660
6600
7600
3E00
0F00
07C0
06C0
0660
C660
C660
66C0
7FC0
1F00
0600
0600
ENDCHAR
STARTCHAR percent
ENCODING 37
SWIDTH 777 0
DWIDTH 21 0
BBX 18 18 1 0
BITMAP
180C00
7E0C00
661800
C31800
C33000
C33000
666000
7E6000
18C000
00C600
019F80
019980
0330C0
0330C0
0630C0
061980
0C1F80
0C0600
ENDCHAR
STARTCHAR ampersand
ENCODING 38
SWIDTH 592 0
DWIDTH 16 0
BBX 15 17 0 0
BITMAP
0E00
3F80
3180
60C0
60C0
3180
3B80
1F00
1E00
3F0C
739C
E1F8
C0F0
C0F0
61F8
7F9C
1E0E
ENDCHAR
STARTCHAR quotesingle
ENCODING 39
SWIDTH 185 0
DWIDTH 5 0
BBX 2 5 1 12
BITMAP
C0
C0
C0
C0
C0
ENDCHAR
STARTCHAR parenleft
ENCODING 40
SWIDTH 296 0
DWIDTH 8 0
BBX 5 22 1 -5
BITMAP
08
10
30
30
60
60
60
C0
C0
C0
C0
C0
C0
C0
C0
60
60
60
30
30
10
08
ENDCHAR
STARTCHAR parenright
ENCODING 41
SWIDTH 296 0
DWIDTH 8 0
BBX 5 22 1 -5
BITMAP
80
40
60
60
30
30
30
18
18
18
18
18
18
18
18
30
30
30
60
60
40
80
ENDCHAR
STARTCHAR asterisk
ENCODING 42
SWIDTH 333 0
DWIDTH 9 0
BBX 8 7 0 11
BITMAP
18
18
DB
FF
3C
7E
66
ENDCHAR
STARTCHAR plus
ENCODING 43
SWIDTH 518 0
DWIDTH 14 0
BBX 10 10 2 3
BITMAP
0C00
0C00
0C00
0C00
FFC0
FFC0
0C00
0C00
0C00
0C00
ENDCHAR
STARTCHAR comma
ENCODING 44
SWIDTH 259 0
DWIDTH 7 0
BBX 2 5 2 -3
BITMAP
C0
C0
40
40
80
ENDCHAR
STARTCHAR hyphen
ENCODING 45
SWIDTH 296 0
DWIDTH 8 0
BBX 7 2 0 7
BITMAP
FE
FE
ENDCHAR
STARTCHAR period
ENCODING 46
SWIDTH 259 0
DWIDTH 7 0
BBX 2 2 2 0
BITMAP
C0
C0
ENDCHAR
STARTCHAR slash
ENCODING 47
SWIDTH 259 0
DWIDTH 7 0
BBX 6 17 0 0
BITMAP
0C
0C
0C
18
18
18
18
30
30
30
60
60
60
60
C0
C0
C0
ENDCHAR
STARTCHAR zero
ENCODING 48
SWIDTH 481 0
DWIDTH 13 0
BBX 11 17 1 0
BITMAP
0E00
3F80
71C0
60C0
E0E0
C060
C060
C060
C060
C060
C060
C060
E0E0
60C0
71C0
3F80
0E00
ENDCHAR
STARTCHAR one
ENCODING 49
SWIDTH 481 0
DWIDTH 13 0
BBX 6 17 2 0
BITMAP
0C
0C
1C
FC
FC
0C
0C
0C
0C
0C
0C
0C
0C
0C
0C
0C
0C
ENDCHAR
STARTCHAR two
ENCODING 50
SWIDTH 481 0
DWIDTH 13 0
BBX 11 17 1 0
BITMAP
1F00
7FC0
60C0
C060
C060
0060
0060
00C0
01C0
0780
1E00
3800
7000
6000
C000
FFE0
FFE0
ENDCHAR
STARTCHAR three
ENCODING 51
SWIDTH 481 0
DWIDTH 13 0
BBX 11 17 1 0
BITMAP
0E00
3F80
3180
60C0
60C0
00C0
0180
0700
07C0
00C0
0060
0060
C060
C060
60C0
7FC0
1F00
ENDCHAR
STARTCHAR four
ENCODING 52
SWIDTH 481 0
DWIDTH 13 0
BBX 12 17 1 0
BITMAP
00C0
01C0
03C0
03C0
06C0
0CC0
0CC0
18C0
30C0
30C0
60C0
FFF0
FFF0
00C0
00C0
00C0
00C0
ENDCHAR
STARTCHAR five
ENCODING 53
SWIDTH 481 0
DWIDTH 13 0
BBX 10 17 2 0
BITMAP
FF80
FF80
C000
C000
C000
C000
DE00
FF80
C180
00C0
00C0
00C0
C0C0
C0C0
6180
7F80
1E00
ENDCHAR
STARTCHAR six
ENCODING 54
SWIDTH 481 0
DWIDTH 13 0
BBX 11 17 1 0
BITMAP
0F00
3FC0
70C0
6000
C000
C000
CE00
FF80
F1C0
E0C0
C060
C060
C060
60C0
71C0
3F80
0E00
ENDCHAR
STARTCHAR seven
ENCODING 55
SWIDTH 481 0
DWIDTH 13 0
BBX 11 17 1 0
BITMAP
FFE0
FFE0
0060
00C0
00C0
0180
0180
0300
0300
0600
0600
0C00
0C00
0C00
1800
1800
1800
ENDCHAR
STARTCHAR eight
ENCODING 56
SWIDTH 481 0
DWIDTH 13 0
BBX 11 17 1 0
BITMAP
0E00
3F80
3180
60C0
60C0
60C0
71C0
3F80
7FC0
60C0
C060
C060
C060
C060
60C0
7FC0
1F00
ENDCHAR
STARTCHAR nine
ENCODING 57
SWIDTH 481 0
DWIDTH 13 0
BBX 11 17 1 0
BITMAP
0E00
3F80
71C0
60C0
C060
C060
C060
60E0
71E0
3FE0
0E60
0060
0060
00C0
61C0
7F80
1E00
ENDCHAR
STARTCHAR colon
ENCODING 58
SWIDTH 259 0
DWIDTH 7 0
BBX 2 13 3 0
BITMAP
C0
C0
00
00
00
00
00
00
00
00
00
C0
C0
ENDCHAR
STARTCHAR semicolon
ENCODING 59
SWIDTH 259 0
DWIDTH 7 0
BBX 2 16 3 -3
BITMAP
C0
C0
00
00
00
00
00
00
00
00
00
C0
C0
40
40
80
ENDCHAR
STARTCHAR less
ENCODING 60
SWIDTH 518 0
DWIDTH 14 0
BBX 10 10 2 2
BITMAP
00C0
03C0
0F00
3C00
F000
F000
3C00
0F00
03C0
00C0
ENDCHAR
STARTCHAR equal
ENCODING 61
SWIDTH 518 0
DWIDTH 14 0
BBX 12 6 1 4
BITMAP
FFF0
FFF0
0000
0000
FFF0
FFF0
ENDCHAR
STARTCHAR greater
ENCODING 62
SWIDTH 518 0
DWIDTH 14 0
BBX 10 10 2 2
BITMAP
C000
F000
3C00
0F00
03C0
03C0
0F00
3C00
F000
C000
ENDCHAR
STARTCHAR question
ENCODING 63
SWIDTH 481 0
DWIDTH 13 0
BBX 10 18 1 0
BITMAP
1E00
7F80
6180
C0C0
C0C0
00C0
0180
0380
0700
0600
0C00
0C00
0C00
0C00
0000
0000
0C00
0C00
ENDCHAR
STARTCHAR at
ENCODING 64
SWIDTH 888 0
DWIDTH 24 0
BBX 22 22 1 -4
BITMAP
00FE00
03FF80
0F01E0
1C0070
380038
303818
60FD8C
61C78C
C3838C
C3030C
C6030C
C6070C
C60618
C60E38
C31E70
63F7E0
60E380
300000
380000
1C0300
0FFF00
03FC00
ENDCHAR
STARTCHAR A
ENCODING 65
SWIDTH 592 0
DWIDTH 16 0
BBX 15 18 0 0
BITMAP
0100
0100
0380
0380
06C0
06C0
0C60
0C60
0C60
1830
1830
3018
3FF8
7FFC
600C
600C
C006
C006
ENDCHAR
STARTCHAR B
ENCODING 66
SWIDTH 592 0
DWIDTH 16 0
BBX 13 18 2 0
BITMAP
FF80
FFE0
C060
C030
C030
C030
C060
FFC0
FFE0
C070
C030
C018
C018
C018
C030
C070
FFE0
FF80
ENDCHAR
STARTCHAR C
ENCODING 67
SWIDTH 629 0
DWIDTH 17 0
BBX 14 18 1 0
BITMAP
07C0
1FF0
3838
701C
600C
C000
C000
C000
C000
C000
C000
C000
C000
600C
701C
3838
1FF0
07C0
ENDCHAR
STARTCHAR D
ENCODING 68
SWIDTH 629 0
DWIDTH 17 0
BBX 14 18 1 0
BITMAP
FF80
FFE0
C070
C038
C018
C00C
C00C
C00C
C00C
C00C
C00C
C00C
C00C
C018
C038
C070
FFE0
FF80
ENDCHAR
STARTCHAR E
ENCODING 69
SWIDTH 592 0
DWIDTH 16 0
BBX 12 18 2 0
BITMAP
FFF0
FFF0
C000
C000
C000
C000
C000
C000
FFF0
FFF0
C000
C000
C000
C000
C000
C000
FFF0
FFF0
ENDCHAR
STARTCHAR F
ENCODING 70
SWIDTH 555 0
DWIDTH 15 0
BBX 12 18 1 0
BITMAP
FFF0
FFF0
C000
C000
C000
C000
C000
C000
FFC0
FFC0
C000
C000
C000
C000
C000
C000
C000
C000
ENDCHAR
STARTCHAR G
ENCODING 71
SWIDTH 703 0
DWIDTH 19 0
BBX 15 18 2 0
BITMAP
07C0
1FF0
3838
701C
600C
C000
C000
C000
C000
C0FE
C0FE
C006
C006
600E
701E
383E
1FF6
07C6
ENDCHAR
STARTCHAR H
ENCODING 72
SWIDTH 629 0
DWIDTH 17 0
BBX 13 18 2 0
BITMAP
C018
C018
C018
C018
C018
C018
C018
C018
FFF8
FFF8
C018
C018
C018
C018
C018
C018
C018
C018
ENDCHAR
STARTCHAR I
ENCODING 73
SWIDTH 259 0
DWIDTH 7 0
BBX 2 18 2 0
BITMAP
C0
C0
C0
C0
C0
C0
C0
C0
C0
C0
C0
C0
C0
C0
C0
C0
C0
C0
ENDCHAR
STARTCHAR J
ENCODING 74
SWIDTH 444 0
DWIDTH 12 0
BBX 9 18 1 0
BITMAP
0180
0180
0180
0180
0180
0180
0180
0180
0180
0180
0180
0180
0180
C180
C180
6300
7F00
1C00
ENDCHAR
STARTCHAR K
ENCODING 75
SWIDTH 592 0
DWIDTH 16 0
BBX 14 18 1 0
BITMAP
C038
C070
C0E0
C1C0
C380
C700
CE00
DC00
F800
FC00
EE00
C700
C380
C1C0
C0E0
C070
C038
C01C
ENDCHAR
STARTCHAR L
ENCODING 76
SWIDTH 481 0
DWIDTH 13 0
BBX 10 18 2 0
BITMAP
C000
C000
C000
C000
C000
C000
C000
C000
C000
C000
C000
C000
C000
C000
C000
C000
FFC0
FFC0
ENDCHAR
STARTCHAR M
ENCODING 77
SWIDTH 740 0
DWIDTH 20 0
BBX 16 18 2 0
BITMAP
E007
E007
F00F
F00F
F81F
D81B
D81B
CC33
CC33
CC33
C663
C663
C663
C3C3
C3C3
C3C3
C183
C183
ENDCHAR
STARTCHAR N
ENCODING 78
SWIDTH 629 0
DWIDTH 17 0
BBX 13 18 2 0
BITMAP
E018
E018
F018
F018
D818
D818
CC18
CE18
C618
C718
C318
C198
C198
C0D8
C0F8
C078
C078
C038
ENDCHAR
STARTCHAR O
ENCODING 79
SWIDTH 703 0
DWIDTH 19 0
BBX 16 18 1 0
BITMAP
07E0
1FF8
381C
700E
6006
C003
C003
C003
C003
C003
C003
C003
C003
6006
700E
381C
1FF8
07E0
ENDCHAR
STARTCHAR P
ENCODING 80
SWIDTH 592 0
DWIDTH 16 0
BBX 13 18 2 0
BITMAP
FF80
FFE0
C070
C030
C018
C018
C018
C030
C070
FFE0
FF80
C000
C000
C000
C000
C000
C000
C000
ENDCHAR
STARTCHAR Q
ENCODING 81
SWIDTH 703 0
DWIDTH 19 0
BBX 16 18 1 0
BITMAP
07E0
1FF8
381C
700E
6006
C003
C003
C003
C003
C003
C003
C003
C063
6076
703E
381C
1FFE
07E6
ENDCHAR
STARTCHAR R
ENCODING 82
SWIDTH 629 0
DWIDTH 17 0
BBX 13 18 2 0
BITMAP
FF80
FFE0
C070
C030
C018
C018
C018
C030
C070
FFE0
FFF0
C038
C018
C018
C018
C018
C018
C018
ENDCHAR
STARTCHAR S
ENCODING 83
SWIDTH 592 0
DWIDTH 16 0
BBX 12 18 2 0
BITMAP
1F80
7FE0
6060
C030
C030
C000
6000
7800
1E00
0780
01E0
0060
0030
C030
C030
6060
7FE0
1F80
ENDCHAR
STARTCHAR T
ENCODING 84
SWIDTH 555 0
DWIDTH 15 0
BBX 14 18 0 0
BITMAP
FFFC
FFFC
0300
0300
0300
0300
0300
0300
0300
0300
0300
0300
0300
0300
0300
0300
0300
0300
ENDCHAR
STARTCHAR U
ENCODING 85
SWIDTH 629 0
DWIDTH 17 0
BBX 13 18 2 0
BITMAP
C018
C018
C018
C018
C018
C018
C018
C018
C018
C018
C018
C018
C018
C018
6030
7070
3FE0
0F80
ENDCHAR
STARTCHAR V
ENCODING 86
SWIDTH 592 0
DWIDTH 16 0
BBX 13 18 1 0
BITMAP
C018
C018
6030
6030
6030
3060
3060
3060
18C0
18C0
18C0
0D80
0D80
0700
0700
0700
0200
0200
ENDCHAR
STARTCHAR W
ENCODING 87
SWIDTH 851 0
DWIDTH 23 0
BBX 20 18 1 0
BITMAP
C06030
C06030
C06030
60F060
60F060
60F060
3198C0
3198C0
3198C0
1B0D80
1B0D80
1B0D80
0E0700
0E0700
0E0700
040200
040200
040200
ENDCHAR
STARTCHAR X
ENCODING 88
SWIDTH 592 0
DWIDTH 16 0
BBX 14 18 1 0
BITMAP
C00C
E01C
7038
3030
1860
1CE0
0FC0
0780
0300
0780
0FC0
0CC0
1860
3870
3030
6018
E01C
C00C
ENDCHAR
STARTCHAR Y
ENCODING 89
SWIDTH 592 0
DWIDTH 16 0
BBX 12 18 2 0
BITMAP
C030
C030
6060
6060
30C0
30C0
1980
1980
0F00
0F00
0600
0600
0600
0600
0600
0600
0600
0600
ENDCHAR
STARTCHAR Z
ENCODING 90
SWIDTH 555 0
DWIDTH 15 0
BBX 13 18 1 0
BITMAP
FFF8
FFF8
0038
0070
00E0
01C0
0380
0380
0700
0E00
1C00
3800
3800
7000
E000
C000
FFF8
FFF8
ENDCHAR
STARTCHAR bracketleft
ENCODING 91
SWIDTH 259 0
DWIDTH 7 0
BBX 4 23 1 -5
BITMAP
F0
F0
C0
C0
C0
C0
C0
C0
C0
C0
C0
C0
C0
C0
C0
C0
C0
C0
C0
C0
C0
F0
F0
ENDCHAR
STARTCHAR backslash
ENCODING 92
SWIDTH 259 0
DWIDTH 7 0
BBX 6 18 0 0
BITMAP
C0
C0
C0
C0
60
60
60
30
30
30
30
18
18
18
0C
0C
0C
0C
ENDCHAR
STARTCHAR bracketright
ENCODING 93
SWIDTH 259 0
DWIDTH 7 0
BBX 4 23 1 -5
BITMAP
F0
F0
30
30
30
30
30
30
30
30
30
30
30
30
30
30
30
30
30
30
30
F0
F0
ENDCHAR
STARTCHAR asciicircum
ENCODING 94
SWIDTH 407 0
DWIDTH 11 0
BBX 7 4 2 13
BITMAP
10
38
6C
C6
ENDCHAR
STARTCHAR underscore
ENCODING 95
SWIDTH 481 0
DWIDTH 13 0
BBX 13 1 0 -4
BITMAP
FFF8
ENDCHAR
STARTCHAR grave
ENCODING 96
SWIDTH 296 0
DWIDTH 8 0
BBX 4 5 2 13
BITMAP
80
C0
60
30
10
ENDCHAR
STARTCHAR a
ENCODING 97
SWIDTH 481 0
DWIDTH 13 0
BBX 11 13 1 0
BITMAP
1F00
7F80
E1C0
C0C0
03C0
1FC0
7CC0
E0C0
C0C0
C1C0
E3C0
7EE0
3C60
ENDCHAR
STARTCHAR b
ENCODING 98
SWIDTH 481 0
DWIDTH 13 0
BBX 11 18 1 0
BITMAP
C000
C000
C000
C000
C000
DE00
FF80
E1C0
C0C0
C060
C060
C060
C060
C060
C0C0
E1C0
FF80
DE00
ENDCHAR
STARTCHAR c
ENCODING 99
SWIDTH 444 0
DWIDTH 12 0
BBX 10 13 1 0
BITMAP
0E00
3F80
71C0
60C0
C000
C000
C000
C000
C000
60C0
71C0
3F80
0E00
ENDCHAR
STARTCHAR d
ENCODING 100
SWIDTH 481 0
DWIDTH 13 0
BBX 11 18 1 0
BITMAP
0060
0060
0060
0060
0060
0F60
3FE0
71E0
60E0
C060
C060
C060
C060
C060
60E0
71E0
3F60
0E60
ENDCHAR
STARTCHAR e
ENCODING 101
SWIDTH 481 0
DWIDTH 13 0
BBX 11 13 1 0
BITMAP
0E00
3F80
71C0
60C0
C060
FFE0
FFE0
C000
C000
60C0
71C0
3F80
0E00
ENDCHAR
STARTCHAR f
ENCODING 102
SWIDTH 259 0
DWIDTH 7 0
BBX 6 18 0 0
BITMAP
1C
3C
30
30
30
FC
FC
30
30
30
30
30
30
30
30
30
30
30
ENDCHAR
STARTCHAR g
ENCODING 103
SWIDTH 481 0
DWIDTH 13 0
BBX 11 18 1 -5
BITMAP
0E60
3FE0
71E0
60E0
C060
C060
C060
C060
C060
60E0
71E0
3F60
0E60
0060
00C0
61C0
7F80
1E00
ENDCHAR
STARTCHAR h
ENCODING 104
SWIDTH 481 0
DWIDTH 13 0
BBX 10 18 1 0
BITMAP
C000
C000
C000
C000
C000
DE00
FF80
E180
C0C0
C0C0
C0C0
C0C0
C0C0
C0C0
C0C0
C0C0
C0C0
C0C0
ENDCHAR
STARTCHAR i
ENCODING 105
SWIDTH 185 0
DWIDTH 5 0
BBX 2 18 1 0
BITMAP
C0
C0
00
00
00
C0
C0
C0
C0
C0
C0
C0
C0
C0
C0
C0
C0
C0
ENDCHAR
STARTCHAR j
ENCODING 106
SWIDTH 185 0
DWIDTH 5 0
BBX 3 23 0 -5
BITMAP
60
60
00
00
00
60
60
60
60
60
60
60
60
60
60
60
60
60
60
60
60
E0
C0
ENDCHAR
STARTCHAR k
ENCODING 107
SWIDTH 444 0
DWIDTH 12 0
BBX 10 18 1 0
BITMAP
C000
C000
C000
C000
C000
C380
C700
CE00
DC00
F800
F000
F000
F800
DC00
CE00
C700
C380
C1C0
ENDCHAR
STARTCHAR l
ENCODING 108
SWIDTH 185 0
DWIDTH 5 0
BBX 2 18 1 0
BITMAP
C0
C0
C0
C0
C0
C0
C0
C0
C0
C0
C0
C0
C0
C0
C0
C0
C0
C0
ENDCHAR
STARTCHAR m
ENCODING 109
SWIDTH 740 0
DWIDTH 20 0
BBX 16 13 2 0
BITMAP
DE38
FF7E
E3C6
C183
C183
C183
C183
C183
C183
C183
C183
C183
C183
ENDCHAR
STARTCHAR n
ENCODING 110
SWIDTH 481 0
DWIDTH 13 0
BBX 10 13 1 0
BITMAP
CE00
DF80
F180
E0C0
C0C0
C0C0
C0C0
C0C0
C0C0
C0C0
C0C0
C0C0
C0C0
ENDCHAR
STARTCHAR o
ENCODING 111
SWIDTH 481 0
DWIDTH 13 0
BBX 11 13 1 0
BITMAP
0E00
3F80
71C0
60C0
C060
C060
C060
C060
C060
60C0
71C0
3F80
0E00
ENDCHAR
STARTCHAR p
ENCODING 112
SWIDTH 481 0
DWIDTH 13 0
BBX 11 18 1 -5
BITMAP
DE00
FF80
E1C0
C0C0
C060
C060
C060
C060
C060
C0C0
E1C0
FF80
DE00
C000
C000
C000
C000
C000
ENDCHAR
STARTCHAR q
ENCODING 113
SWIDTH 481 0
DWIDTH 13 0
BBX 11 18 1 -5
BITMAP
0F60
3FE0
70E0
6060
C060
C060
C060
C060
C060
6060
70E0
3FE0
0F60
0060
0060
0060
0060
0060
ENDCHAR
STARTCHAR r
ENCODING 114
SWIDTH 296 0
DWIDTH 8 0
BBX 7 13 0 0
BITMAP
CE
DE
F0
E0
C0
C0
C0
C0
C0
C0
C0
C0
C0
ENDCHAR
STARTCHAR s
ENCODING 115
SWIDTH 444 0
DWIDTH 12 0
BBX 10 13 1 0
BITMAP
1E00
7F80
E1C0
C0C0
E000
7C00
1F80
03C0
C0C0
C0C0
E1C0
7F80
1E00
ENDCHAR
STARTCHAR t
ENCODING 116
SWIDTH 259 0
DWIDTH 7 0
BBX 6 16 0 0
BITMAP
30
30
30
FC
FC
30
30
30
30
30
30
30
30
30
3C
1C
ENDCHAR
STARTCHAR u
ENCODING 117
SWIDTH 481 0
DWIDTH 13 0
BBX 10 13 1 0
BITMAP
C0C0
C0C0
C0C0
C0C0
C0C0
C0C0
C0C0
C0C0
C0C0
C1C0
63C0
7EC0
1CC0
ENDCHAR
STARTCHAR v
ENCODING 118
SWIDTH 444 0
DWIDTH 12 0
BBX 10 13 1 0
BITMAP
C0C0
C0C0
C0C0
6180
6180
6180
3300
3300
3300
1E00
1E00
0C00
0C00
ENDCHAR
STARTCHAR w
ENCODING 119
SWIDTH 629 0
DWIDTH 17 0
BBX 16 13 0 0
BITMAP
C183
C183
C183
C3C3
63C6
6666
6666
366C
3C3C
3C3C
1818
1818
1818
ENDCHAR
STARTCHAR x
ENCODING 120
SWIDTH 444 0
DWIDTH 12 0
BBX 10 13 1 0
BITMAP
C0C0
E1C0
6180
3300
3E00
1E00
0C00
1E00
3F00
3300
6180
E1C0
C0C0
ENDCHAR
STARTCHAR y
ENCODING 121
SWIDTH 444 0
DWIDTH 12 0
BBX 10 18 1 -5
BITMAP
C0C0
C0C0
C0C0
6180
6180
6180
3300
3300
3300
1E00
1E00
1E00
0C00
0C00
0C00
1800
F800
E000
ENDCHAR
STARTCHAR z
ENCODING 122
SWIDTH 444 0
DWIDTH 12 0
BBX 10 13 1 0
BITMAP
FFC0
FFC0
0180
0300
0700
0E00
1C00
1800
3800
7000
E000
FFC0
FFC0
ENDCHAR
STARTCHAR braceleft
ENCODING 123
SWIDTH 296 0
DWIDTH 8 0
BBX 5 23 1 -5
BITMAP
18
30
30
30
30
30
30
30
30
30
20
C0
20
30
30
30
30
30
30
30
30
30
18
ENDCHAR
STARTCHAR bar
ENCODING 124
SWIDTH 222 0
DWIDTH 6 0
BBX 2 23 2 -5
BITMAP
C0
C0
C0
C0
C0
C0
C0
C0
C0
C0
C0
C0
C0
C0
C0
C0
C0
C0
C0
C0
C0
C0
C0
ENDCHAR
STARTCHAR braceright
ENCODING 125
SWIDTH 296 0
DWIDTH 8 0
BBX 5 23 1 -5
BITMAP
C0
60
60
60
60
60
60
60
60
60
20
18
20
60
60
60
60
60
60
60
60
60
C0
ENDCHAR
STARTCHAR asciitilde
ENCODING 126
SWIDTH 518 0
DWIDTH 14 0
BBX 10 3 2 7
BITMAP
7840
FFC0
8780
ENDCHAR
STARTCHAR Adieresis
ENCODING 128
SWIDTH 592 0
DWIDTH 16 0
BBX 15 20 0 0
BITMAP
0C60
0C60
0100
0100
0380
0380
06C0
06C0
0C60
0C60
0C60
1830
1830
3018
3FF8
7FFC
600C
600C
C006
C006
ENDCHAR
STARTCHAR Aring
ENCODING 129
SWIDTH 592 0
DWIDTH 16 0
BBX 15 21 0 0
BITMAP
3FF8
3FF8
0000
0100
0100
0380
0380
06C0
06C0
0C60
0C60
0C60
1830
1830
3018
3FF8
7FFC
600C
600C
C006
C006
ENDCHAR
STARTCHAR Ccedilla
ENCODING 130
SWIDTH 481 0
DWIDTH 13 0
BBX 11 17 1 0
BITMAP
FFC0
FFC0
0000
0000
1F00
7F80
E1C0
C0C0
03C0
1FC0
7CC0
E0C0
C0C0
C1C0
E3C0
7EE0
3C60
ENDCHAR
STARTCHAR Eacute
ENCODING 131
SWIDTH 592 0
DWIDTH 16 0
BBX 12 22 2 0
BITMAP
0180
0300
0600
0000
FFF0
FFF0
C000
C000
C000
C000
C000
C000
FFF0
FFF0
C000
C000
C000
C000
C000
C000
FFF0
FFF0
ENDCHAR
STARTCHAR Ntilde
ENCODING 132
SWIDTH 592 0
DWIDTH 16 0
BBX 16 22 0 -4
BITMAP
0100
0100
0380
0380
06C0
06C0
0C60
0C60
0C60
1830
1830
3018
3FF8
7FFC
600C
600C
C006
C006
0004
000C
000D
0006
ENDCHAR
STARTCHAR Odieresis
ENCODING 133
SWIDTH 703 0
DWIDTH 19 0
BBX 16 20 1 0
BITMAP
180C
180C
07F0
1FF8
381C
700E
6006
C003
C003
C003
C003
C003
C003
C003
C003
6006
700E
381C
1FF8
07E0
ENDCHAR
STARTCHAR Udieresis
ENCODING 134
SWIDTH 629 0
DWIDTH 17 0
BBX 13 20 1 0
BITMAP
18C0
18C0
C018
C018
C018
C018
C018
C018
C018
C018
C018
C018
C018
C018
C018
C018
6030
7070
3FE0
0F80
ENDCHAR
STARTCHAR aacute
ENCODING 135
SWIDTH 481 0
DWIDTH 13 0
BBX 11 17 1 0
BITMAP
0300
0600
0C00
0000
1F00
3F80
71C0
60C0
03C0
1FC0
7CC0
E0C0
C0C0
C1C0
E3C0
7EE0
3C60
ENDCHAR
STARTCHAR agrave
ENCODING 136
SWIDTH 481 0
DWIDTH 13 0
BBX 11 17 1 -4
BITMAP
1F00
3F80
71C0
60C0
03C0
1FC0
7CC0
E0C0
C0C0
C1C0
E3C0
7EE0
3C60
0080
0180
01A0
00C0
ENDCHAR
STARTCHAR acircumflex
ENCODING 137
SWIDTH 629 0
DWIDTH 17 0
BBX 14 22 1 0
BITMAP
0C60
06C0
0380
0000
07C0
1FF0
3838
701C
600C
C000
C000
C000
C000
C000
C000
C000
C000
600C
701C
3838
1FF0
07C0
ENDCHAR
STARTCHAR adieresis
ENCODING 138
SWIDTH 481 0
DWIDTH 13 0
BBX 11 16 1 0
BITMAP
3180
3180
0000
1F00
3F80
71C0
60C0
03C0
1FC0
7CC0
E0C0
C0C0
C1C0
E3C0
7EE0
3C60
ENDCHAR
STARTCHAR atilde
ENCODING 139
SWIDTH 444 0
DWIDTH 12 0
BBX 10 17 1 0
BITMAP
3180
1B00
0E00
0000
0E00
3F80
71C0
60C0
C000
C000
C000
C000
C000
60C0
71C0
3F80
0E00
ENDCHAR
STARTCHAR aring
ENCODING 140
SWIDTH 629 0
DWIDTH 17 0
BBX 14 22 1 0
BITMAP
00C0
0180
0300
0000
07C0
1FF0
3838
701C
600C
C000
C000
C000
C000
C000
C000
C000
C000
600C
701C
3838
1FF0
07C0
ENDCHAR
STARTCHAR ccedilla
ENCODING 141
SWIDTH 444 0
DWIDTH 12 0
BBX 10 17 1 0
BITMAP
0300
0600
0C00
0000
0E00
3F80
71C0
60C0
C000
C000
C000
C000
C000
60C0
71C0
3F80
0E00
ENDCHAR
STARTCHAR eacute
ENCODING 142
SWIDTH 481 0
DWIDTH 13 0
BBX 11 17 1 0
BITMAP
0300
0600
0C00
0000
0E00
3F80
71C0
60C0
C060
FFE0
FFE0
C000
C000
60C0
71C0
3F80
0E00
ENDCHAR
STARTCHAR egrave
ENCODING 143
SWIDTH 555 0
DWIDTH 15 0
BBX 13 22 1 0
BITMAP
0180
0300
0600
0000
FFF8
FFF8
0038
0070
00E0
01C0
0380
0380
0700
0E00
1C00
3800
3800
7000
E000
C000
FFF8
FFF8
ENDCHAR
STARTCHAR ecircumflex
ENCODING 144
SWIDTH 444 0
DWIDTH 12 0
BBX 10 17 1 0
BITMAP
0300
0600
0C00
0000
FFC0
FFC0
0180
0300
0700
0E00
1C00
1800
3800
7000
E000
FFC0
FFC0
ENDCHAR
STARTCHAR edieresis
ENCODING 145
SWIDTH 629 0
DWIDTH 17 0
BBX 14 22 1 0
BITMAP
3180
1B00
0E00
0000
FF80
FFE0
C070
C038
C018
C00C
C00C
C00C
C00C
C00C
C00C
C00C
C00C
C018
C038
C070
FFE0
FF80
ENDCHAR
STARTCHAR iacute
ENCODING 146
SWIDTH 185 0
DWIDTH 5 0
BBX 4 17 1 0
BITMAP
30
60
C0
00
C0
C0
C0
C0
C0
C0
C0
C0
C0
C0
C0
C0
C0
ENDCHAR
STARTCHAR igrave
ENCODING 147
SWIDTH 555 0
DWIDTH 15 0
BBX 14 20 1 0
BITMAP
000C
000C
0064
0064
0068
0060
0060
0F60
3FE0
71E0
60E0
C060
C060
C060
C060
C060
60E0
71E0
3F60
0E60
ENDCHAR
STARTCHAR icircumflex
ENCODING 148
SWIDTH 592 0
DWIDTH 16 0
BBX 12 21 2 0
BITMAP
7FE0
7FE0
0000
FFF0
FFF0
C000
C000
C000
C000
C000
C000
FFF0
FFF0
C000
C000
C000
C000
C000
C000
FFF0
FFF0
ENDCHAR
STARTCHAR idieresis
ENCODING 149
SWIDTH 481 0
DWIDTH 13 0
BBX 11 16 1 0
BITMAP
7FC0
7FC0
0000
0E00
3F80
71C0
60C0
C060
FFE0
FFE0
C000
C000
60C0
71C0
3F80
0E00
ENDCHAR
STARTCHAR ntilde
ENCODING 150
SWIDTH 592 0
DWIDTH 16 0
BBX 12 21 2 0
BITMAP
0600
0600
0000
FFF0
FFF0
C000
C000
C000
C000
C000
C000
FFF0
FFF0
C000
C000
C000
C000
C000
C000
FFF0
FFF0
ENDCHAR
STARTCHAR oacute
ENCODING 151
SWIDTH 481 0
DWIDTH 13 0
BBX 11 17 1 0
BITMAP
0180
0300
0600
0000
0E00
3F80
71C0
60C0
C060
C060
C060
C060
C060
60C0
71C0
3F80
0E00
ENDCHAR
STARTCHAR ograve
ENCODING 152
SWIDTH 481 0
DWIDTH 13 0
BBX 11 16 1 0
BITMAP
0C00
0C00
0000
0E00
3F80
71C0
60C0
C060
FFE0
FFE0
C000
C000
60C0
71C0
3F80
0E00
ENDCHAR
STARTCHAR ocircumflex
ENCODING 153
SWIDTH 481 0
DWIDTH 13 0
BBX 11 18 1 0
BITMAP
0400
0E00
1B00
3180
0000
0E00
3F80
71C0
60C0
C060
C060
C060
C060
C060
60C0
71C0
3F80
0E00
ENDCHAR
STARTCHAR odieresis
ENCODING 154
SWIDTH 481 0
DWIDTH 13 0
BBX 11 16 1 0
BITMAP
3180
3180
0000
0E00
3F80
71C0
60C0
C060
C060
C060
C060
C060
60C0
71C0
3F80
0E00
ENDCHAR
STARTCHAR otilde
ENCODING 155
SWIDTH 481 0
DWIDTH 13 0
BBX 11 17 1 0
BITMAP
3880
4700
0000
0000
0E00
3F80
71C0
60C0
C060
C060
C060
C060
C060
60C0
71C0
3F80
0E00
ENDCHAR
STARTCHAR uacute
ENCODING 156
SWIDTH 481 0
DWIDTH 13 0
BBX 10 18 1 0
BITMAP
0300
0600
0C00
0000
0000
C0C0
C0C0
C0C0
C0C0
C0C0
C0C0
C0C0
C0C0
C0C0
C1C0
63C0
7EC0
1CC0
ENDCHAR
STARTCHAR ugrave
ENCODING 157
SWIDTH 592 0
DWIDTH 16 0
BBX 12 22 2 0
BITMAP
18C0
0D80
0700
0000
FFF0
FFF0
C000
C000
C000
C000
C000
C000
FFF0
FFF0
C000
C000
C000
C000
C000
C000
FFF0
FFF0
ENDCHAR
STARTCHAR ucircumflex
ENCODING 158
SWIDTH 481 0
DWIDTH 13 0
BBX 11 17 1 0
BITMAP
3180
1B00
0E00
0000
0E00
3F80
71C0
60C0
C060
FFE0
FFE0
C000
C000
60C0
71C0
3F80
0E00
ENDCHAR
STARTCHAR udieresis
ENCODING 159
SWIDTH 481 0
DWIDTH 13 0
BBX 10 16 1 0
BITMAP
3300
3300
0000
C0C0
C0C0
C0C0
C0C0
C0C0
C0C0
C0C0
C0C0
C0C0
C1C0
63C0
7EC0
1CC0
ENDCHAR
STARTCHAR dagger
ENCODING 160
SWIDTH 481 0
DWIDTH 13 0
BBX 10 22 1 -4
BITMAP
0C00
0C00
0C00
0C00
FFC0
FFC0
0C00
0C00
0C00
0C00
0C00
0C00
0C00
0C00
0C00
0C00
0C00
0C00
0C00
0C00
0C00
0C00
ENDCHAR
STARTCHAR degree
ENCODING 161
SWIDTH 185 0
DWIDTH 5 0
BBX 4 4 0 13
BITMAP
60
90
90
60
ENDCHAR
STARTCHAR cent
ENCODING 162
SWIDTH 592 0
DWIDTH 16 0
BBX 12 22 2 -4
BITMAP
FFF0
FFF0
C000
C000
C000
C000
C000
C000
FFF0
FFF0
C000
C000
C000
C000
C000
C000
FFF0
FFF0
0200
0600
0680
0300
ENDCHAR
STARTCHAR sterling
ENCODING 163
SWIDTH 481 0
DWIDTH 13 0
BBX 11 17 1 0
BITMAP
0700
1F80
18C0
30C0
3000
3000
3000
FE00
FE00
3000
3000
3000
3000
3000
7E60
FFE0
C3C0
ENDCHAR
STARTCHAR section
ENCODING 164
SWIDTH 481 0
DWIDTH 13 0
BBX 11 23 1 -5
BITMAP
0E00
3F80
31C0
60C0
60C0
7000
3800
7E00
EF80
C3C0
C0C0
C060
E060
7860
1EC0
0FC0
0380
01C0
60C0
60C0
71C0
3F80
0E00
ENDCHAR
STARTCHAR bullet
ENCODING 165
SWIDTH 296 0
DWIDTH 8 0
BBX 6 6 1 5
BITMAP
78
FC
FC
FC
FC
78
ENDCHAR
STARTCHAR paragraph
ENCODING 166
SWIDTH 481 0
DWIDTH 13 0
BBX 11 23 1 -5
BITMAP
1FE0
7FE0
7EC0
FEC0
FEC0
FEC0
FEC0
FEC0
7EC0
7EC0
1EC0
06C0
06C0
06C0
06C0
06C0
06C0
06C0
06C0
06C0
06C0
06C0
06C0
ENDCHAR
STARTCHAR germandbls
ENCODING 167
SWIDTH 555 0
DWIDTH 15 0
BBX 11 18 2 0
BITMAP
1E00
7F80
6180
C0C0
C0C0
C0C0
C0C0
C180
C300
C1C0
C0C0
C060
C060
C060
C060
C0C0
C7C0
C700
ENDCHAR
STARTCHAR registered
ENCODING 168
SWIDTH 703 0
DWIDTH 19 0
BBX 16 16 1 0
BITMAP
07E0
1818
300C
6006
4FC2
8661
8661
8661
87C1
86C1
8661
4F32
6006
300C
1818
07E0
ENDCHAR
STARTCHAR copyright
ENCODING 169
SWIDTH 703 0
DWIDTH 19 0
BBX 16 16 1 0
BITMAP
07E0
1818
300C
6006
43A2
8661
8C21
8C01
8C01
8C01
8621
43C2
6006
300C
1818
07E0
ENDCHAR
STARTCHAR trademark
ENCODING 170
SWIDTH 777 0
DWIDTH 21 0
BBX 19 7 0 10
BITMAP
FFC060
9960C0
1871C0
185B40
184E40
184440
3CE0E0
ENDCHAR
STARTCHAR acute
ENCODING 171
SWIDTH 481 0
DWIDTH 13 0
BBX 11 17 1 -4
BITMAP
0E00
3F80
71C0
60C0
C060
FFE0
FFE0
C000
C000
60C0
71C0
3F80
0E00
0400
0C00
0D00
0600
ENDCHAR
STARTCHAR dieresis
ENCODING 172
SWIDTH 296 0
DWIDTH 8 0
BBX 6 2 1 15
BITMAP
CC
CC
ENDCHAR
STARTCHAR notequal
ENCODING 173
SWIDTH 481 0
DWIDTH 13 0
BBX 12 9 0 1
BITMAP
0060
00C0
FFF0
FFF0
0600
FFF0
FFF0
3000
6000
ENDCHAR
STARTCHAR AE
ENCODING 174
SWIDTH 481 0
DWIDTH 13 0
BBX 11 23 1 -5
BITMAP
0200
0400
0600
0600
0000
0E60
3FE0
71E0
60E0
C060
C060
C060
C060
C060
60E0
71E0
3F60
0E60
0060
00C0
61C0
7F80
1E00
ENDCHAR
STARTCHAR Oslash
ENCODING 175
SWIDTH 259 0
DWIDTH 7 0
BBX 4 22 2 -4
BITMAP
C0
C0
C0
C0
C0
C0
C0
C0
C0
C0
C0
C0
C0
C0
C0
C0
C0
C0
40
C0
D0
60
ENDCHAR
STARTCHAR infinity
ENCODING 176
SWIDTH 185 0
DWIDTH 5 0
BBX 4 22 0 -4
BITMAP
60
60
00
00
00
60
60
60
60
60
60
60
60
60
60
60
60
60
40
C0
D0
60
ENDCHAR
STARTCHAR plusminus
ENCODING 177
SWIDTH 259 0
DWIDTH 7 0
BBX 4 21 1 0
BITMAP
F0
F0
00
60
60
60
60
60
60
60
60
60
60
60
60
60
60
60
60
60
60
ENDCHAR
STARTCHAR lessequal
ENCODING 178
SWIDTH 518 0
DWIDTH 14 0
BBX 10 11 2 -1
BITMAP
00C0
0380
0E00
3800
F000
3800
0E00
0380
00C0
FFC0
FFC0
ENDCHAR
STARTCHAR greaterequal
ENCODING 179
SWIDTH 518 0
DWIDTH 14 0
BBX 10 11 2 -1
BITMAP
C000
7000
1C00
0700
03C0
0700
1C00
7000
C000
FFC0
FFC0
ENDCHAR
STARTCHAR yen
ENCODING 180
SWIDTH 185 0
DWIDTH 5 0
BBX 4 18 0 0
BITMAP
F0
F0
00
00
00
60
60
60
60
60
60
60
60
60
60
60
60
60
ENDCHAR
STARTCHAR mu
ENCODING 181
SWIDTH 592 0
DWIDTH 16 0
BBX 14 23 1 -5
BITMAP
C038
C070
C0E0
C1C0
C380
C700
CE00
DC00
F800
FC00
EE00
C700
C380
C1C0
C0E0
C070
C038
C01C
0000
0600
0600
0200
0400
ENDCHAR
STARTCHAR partialdiff
ENCODING 182
SWIDTH 444 0
DWIDTH 12 0
BBX 9 16 1 0
BITMAP
3800
0600
0300
0300
0180
0180
1D80
7F80
6180
C180
C180
C180
C300
C300
6600
3C00
ENDCHAR
STARTCHAR summation
ENCODING 183
SWIDTH 629 0
DWIDTH 17 0
BBX 14 18 1 -2
BITMAP
FFFC
600C
3004
1800
0C00
0600
0300
0180
0080
0100
0200
0400
0800
1000
2004
400C
FFFC
FFFC
ENDCHAR
STARTCHAR product
ENCODING 184
SWIDTH 259 0
DWIDTH 7 0
BBX 6 18 0 0
BITMAP
30
30
30
30
30
30
30
34
3C
78
F0
B0
30
30
30
30
30
30
ENDCHAR
STARTCHAR pi
ENCODING 185
SWIDTH 481 0
DWIDTH 13 0
BBX 10 23 2 -5
BITMAP
C000
C000
C000
C000
C000
C000
C000
C000
C000
C000
C000
C000
C000
C000
C000
C000
FFC0
FFC0
0000
0C00
0C00
0400
0800
ENDCHAR
STARTCHAR integral
ENCODING 186
SWIDTH 185 0
DWIDTH 5 0
BBX 2 23 1 -5
BITMAP
C0
C0
C0
C0
C0
C0
C0
C0
C0
C0
C0
C0
C0
C0
C0
C0
C0
C0
00
C0
C0
40
80
ENDCHAR
STARTCHAR ordfeminine
ENCODING 187
SWIDTH 481 0
DWIDTH 13 0
BBX 10 20 2 0
BITMAP
0C00
0C00
C400
C400
C800
C000
C000
C000
C000
C000
C000
C000
C000
C000
C000
C000
C000
C000
FFC0
FFC0
ENDCHAR
STARTCHAR ordmasculine
ENCODING 188
SWIDTH 222 0
DWIDTH 6 0
BBX 5 20 1 0
BITMAP
18
18
C8
C8
D0
C0
C0
C0
C0
C0
C0
C0
C0
C0
C0
C0
C0
C0
C0
C0
ENDCHAR
STARTCHAR Omega
ENCODING 189
SWIDTH 481 0
DWIDTH 13 0
BBX 10 22 2 0
BITMAP
3000
6000
C000
0000
C000
C000
C000
C000
C000
C000
C000
C000
C000
C000
C000
C000
C000
C000
C000
C000
FFC0
FFC0
ENDCHAR
STARTCHAR ae
ENCODING 190
SWIDTH 185 0
DWIDTH 5 0
BBX 4 22 1 0
BITMAP
30
60
C0
00
C0
C0
C0
C0
C0
C0
C0
C0
C0
C0
C0
C0
C0
C0
C0
C0
C0
C0
ENDCHAR
STARTCHAR oslash
ENCODING 191
SWIDTH 629 0
DWIDTH 17 0
BBX 13 23 2 -5
BITMAP
E018
E018
F018
F018
D818
D818
CC18
CE18
C618
C718
C318
C198
C198
C0D8
C0F8
C078
C078
C038
0000
0600
0600
0200
0400
ENDCHAR
STARTCHAR questiondown
ENCODING 192
SWIDTH 481 0
DWIDTH 13 0
BBX 10 18 1 -5
BITMAP
CE00
DF80
F180
E0C0
C0C0
C0C0
C0C0
C0C0
C0C0
C0C0
C0C0
C0C0
C0C0
0000
0C00
0C00
0400
0800
ENDCHAR
STARTCHAR exclamdown
ENCODING 193
SWIDTH 629 0
DWIDTH 17 0
BBX 13 22 2 0
BITMAP
0180
0300
0600
0000
E018
E018
F018
F018
D818
D818
CC18
CE18
C618
C718
C318
C198
C198
C0D8
C0F8
C078
C078
C038
ENDCHAR
STARTCHAR logicalnot
ENCODING 194
SWIDTH 629 0
DWIDTH 17 0
BBX 13 5 2 1
BITMAP
FFF8
FFF8
0008
0008
0008
ENDCHAR
STARTCHAR radical
ENCODING 195
SWIDTH 481 0
DWIDTH 13 0
BBX 12 16 0 0
BITMAP
0010
0030
0020
0060
0040
00C0
0080
0180
4100
E300
2200
3600
1400
1C00
0800
0800
ENDCHAR
STARTCHAR florin
ENCODING 196
SWIDTH 481 0
DWIDTH 13 0
BBX 10 17 1 0
BITMAP
0300
0600
0C00
0000
CE00
DF80
F180
E0C0
C0C0
C0C0
C0C0
C0C0
C0C0
C0C0
C0C0
C0C0
C0C0
ENDCHAR
STARTCHAR approxequal
ENCODING 197
SWIDTH 629 0
DWIDTH 17 0
BBX 13 22 2 0
BITMAP
18C0
0D80
0700
0000
E018
E018
F018
F018
D818
D818
CC18
CE18
C618
C718
C318
C198
C198
C0D8
C0F8
C078
C078
C038
ENDCHAR
STARTCHAR Delta
ENCODING 198
SWIDTH 555 0
DWIDTH 15 0
BBX 15 16 0 0
BITMAP
0100
0100
0380
0380
06C0
04C0
0C60
0860
1830
1030
3018
2018
600C
400C
FFFE
FFFE
ENDCHAR
STARTCHAR guillemotleft
ENCODING 199
SWIDTH 481 0
DWIDTH 13 0
BBX 10 9 1 2
BITMAP
0840
18C0
3180
6300
C600
6300
3180
18C0
0840
ENDCHAR
STARTCHAR guillemotright
ENCODING 200
SWIDTH 481 0
DWIDTH 13 0
BBX 10 9 1 2
BITMAP
8400
C600
6300
3180
18C0
3180
6300
C600
8400
ENDCHAR
STARTCHAR ellipsis
ENCODING 201
SWIDTH 888 0
DWIDTH 24 0
BBX 18 2 3 0
BITMAP
C0C0C0
C0C0C0
ENDCHAR
STARTCHAR nbspace
ENCODING 202
SWIDTH 481 0
DWIDTH 13 0
BBX 0 0 0 -5
BITMAP
ENDCHAR
STARTCHAR Agrave
ENCODING 203
SWIDTH 481 0
DWIDTH 13 0
BBX 10 17 1 0
BITMAP
6300
3600
1C00
0000
CE00
DF80
F180
E0C0
C0C0
C0C0
C0C0
C0C0
C0C0
C0C0
C0C0
C0C0
C0C0
ENDCHAR
STARTCHAR Atilde
ENCODING 204
SWIDTH 703 0
DWIDTH 19 0
BBX 16 22 1 0
BITMAP
030C
0618
0C30
0000
07E0
1FF8
381C
700E
6006
C003
C003
C003
C003
C003
C003
C003
C003
6006
700E
381C
1FF8
07E0
ENDCHAR
STARTCHAR Otilde
ENCODING 205
SWIDTH 703 0
DWIDTH 19 0
BBX 16 21 1 0
BITMAP
0790
09E0
0000
07E0
1FF8
381C
700E
6006
C003
C003
C003
C003
C003
C003
C003
C003
6006
700E
381C
1FF8
07E0
ENDCHAR
STARTCHAR OE
ENCODING 206
SWIDTH 481 0
DWIDTH 13 0
BBX 11 17 1 0
BITMAP
0CC0
1980
3300
0000
0E00
3F80
71C0
60C0
C060
C060
C060
C060
C060
60C0
71C0
3F80
0E00
ENDCHAR
STARTCHAR oe
ENCODING 207
SWIDTH 703 0
DWIDTH 19 0
BBX 16 21 1 0
BITMAP
7FFE
7FFE
0000
07E0
1FF8
381C
700E
6006
C003
C003
C003
C003
C003
C003
C003
C003
6006
700E
381C
1FF8
07E0
ENDCHAR
STARTCHAR endash
ENCODING 208
SWIDTH 481 0
DWIDTH 13 0
BBX 12 2 0 6
BITMAP
FFF0
FFF0
ENDCHAR
STARTCHAR emdash
ENCODING 209
SWIDTH 888 0
DWIDTH 24 0
BBX 18 2 3 6
BITMAP
FFFFC0
FFFFC0
ENDCHAR
STARTCHAR quotedblleft
ENCODING 210
SWIDTH 296 0
DWIDTH 8 0
BBX 6 5 1 12
BITMAP
44
88
88
CC
CC
ENDCHAR
STARTCHAR quotedblright
ENCODING 211
SWIDTH 296 0
DWIDTH 8 0
BBX 6 5 1 12
BITMAP
CC
CC
44
44
88
ENDCHAR
STARTCHAR quoteleft
ENCODING 212
SWIDTH 185 0
DWIDTH 5 0
BBX 2 5 2 12
BITMAP
40
80
80
C0
C0
ENDCHAR
STARTCHAR quoteright
ENCODING 213
SWIDTH 185 0
DWIDTH 5 0
BBX 2 5 2 12
BITMAP
C0
C0
40
40
80
ENDCHAR
STARTCHAR divide
ENCODING 214
SWIDTH 481 0
DWIDTH 13 0
BBX 12 10 0 1
BITMAP
0600
0600
0000
0000
FFF0
FFF0
0000
0000
0600
0600
ENDCHAR
STARTCHAR lozenge
ENCODING 215
SWIDTH 444 0
DWIDTH 12 0
BBX 11 17 0 -1
BITMAP
0400
0400
0E00
0A00
1B00
3180
2080
60C0
C060
60C0
3080
3180
1B00
0A00
0E00
0400
0400
ENDCHAR
STARTCHAR ydieresis
ENCODING 216
SWIDTH 481 0
DWIDTH 13 0
BBX 11 16 1 0
BITMAP
7FC0
7FC0
0000
0E00
3F80
71C0
60C0
C060
C060
C060
C060
C060
60C0
71C0
3F80
0E00
ENDCHAR
STARTCHAR Ydieresis
ENCODING 217
SWIDTH 629 0
DWIDTH 17 0
BBX 13 22 2 0
BITMAP
0300
0600
0C00
0000
FF80
FFE0
C070
C030
C018
C018
C018
C030
C070
FFE0
FFF0
C038
C018
C018
C018
C018
C018
C018
ENDCHAR
STARTCHAR fraction
ENCODING 218
SWIDTH 296 0
DWIDTH 8 0
BBX 7 17 0 0
BITMAP
0C
18
30
00
CE
DE
F0
E0
C0
C0
C0
C0
C0
C0
C0
C0
C0
ENDCHAR
STARTCHAR currency
ENCODING 219
SWIDTH 629 0
DWIDTH 17 0
BBX 13 22 2 0
BITMAP
3180
1B00
0E00
0000
FF80
FFE0
C070
C030
C018
C018
C018
C030
C070
FFE0
FFF0
C038
C018
C018
C018
C018
C018
C018
ENDCHAR
STARTCHAR guilsinglleft
ENCODING 220
SWIDTH 296 0
DWIDTH 8 0
BBX 5 9 1 2
BITMAP
08
18
30
60
C0
60
30
18
08
ENDCHAR
STARTCHAR guilsinglright
ENCODING 221
SWIDTH 296 0
DWIDTH 8 0
BBX 5 9 1 2
BITMAP
80
C0
60
30
18
30
60
C0
80
ENDCHAR
STARTCHAR fi
ENCODING 222
SWIDTH 296 0
DWIDTH 8 0
BBX 7 17 0 0
BITMAP
C6
6C
38
00
CE
DE
F0
E0
C0
C0
C0
C0
C0
C0
C0
C0
C0
ENDCHAR
STARTCHAR fl
ENCODING 223
SWIDTH 629 0
DWIDTH 17 0
BBX 13 23 2 -5
BITMAP
FF80
FFE0
C070
C030
C018
C018
C018
C030
C070
FFE0
FFF0
C038
C018
C018
C018
C018
C018
C018
0000
0600
0600
0200
0400
ENDCHAR
STARTCHAR daggerdbl
ENCODING 224
SWIDTH 296 0
DWIDTH 8 0
BBX 7 18 1 -5
BITMAP
CE
DE
F0
E0
C0
C0
C0
C0
C0
C0
C0
C0
C0
00
C0
C0
40
80
ENDCHAR
STARTCHAR periodcentered
ENCODING 225
SWIDTH 592 0
DWIDTH 16 0
BBX 12 22 2 0
BITMAP
30C0
1980
0F00
0000
1F80
7FE0
6060
C030
C030
C000
6000
7800
1E00
0780
01E0
0060
0030
C030
C030
6060
7FE0
1F80
ENDCHAR
STARTCHAR quotesinglbase
ENCODING 226
SWIDTH 185 0
DWIDTH 5 0
BBX 2 5 1 -3
BITMAP
C0
C0
40
40
80
ENDCHAR
STARTCHAR quotedblbase
ENCODING 227
SWIDTH 296 0
DWIDTH 8 0
BBX 6 5 1 -3
BITMAP
CC
CC
44
44
88
ENDCHAR
STARTCHAR perthousand
ENCODING 228
SWIDTH 444 0
DWIDTH 12 0
BBX 10 17 1 0
BITMAP
6180
3300
1E00
0000
1E00
7F80
E1C0
C0C0
E000
7C00
1F80
03C0
C0C0
C0C0
E1C0
7F80
1E00
ENDCHAR
STARTCHAR Acircumflex
ENCODING 229
SWIDTH 592 0
DWIDTH 16 0
BBX 12 22 2 0
BITMAP
0180
0300
0600
0000
1F80
7FE0
6060
C030
C030
C000
6000
7800
1E00
0780
01E0
0060
0030
C030
C030
6060
7FE0
1F80
ENDCHAR
STARTCHAR Ecircumflex
ENCODING 230
SWIDTH 444 0
DWIDTH 12 0
BBX 10 17 1 0
BITMAP
0300
0600
0C00
0000
1E00
7F80
E1C0
C0C0
E000
7C00
1F80
03C0
C0C0
C0C0
E1C0
7F80
1E00
ENDCHAR
STARTCHAR Aacute
ENCODING 231
SWIDTH 592 0
DWIDTH 16 0
BBX 15 22 0 0
BITMAP
0060
00C0
0180
0000
0100
0100
0380
0380
06C0
06C0
0C60
0C60
0C60
1830
1830
3018
3FF8
7FFC
600C
600C
C006
C006
ENDCHAR
STARTCHAR Edieresis
ENCODING 232
SWIDTH 555 0
DWIDTH 15 0
BBX 14 22 0 0
BITMAP
1860
0CC0
0780
0000
FFFC
FFFC
0300
0300
0300
0300
0300
0300
0300
0300
0300
0300
0300
0300
0300
0300
0300
0300
ENDCHAR
STARTCHAR Egrave
ENCODING 233
SWIDTH 259 0
DWIDTH 7 0
BBX 7 19 0 0
BITMAP
06
06
02
32
34
30
FC
FC
30
30
30
30
30
30
30
30
30
3C
1C
ENDCHAR
STARTCHAR Iacute
ENCODING 234
SWIDTH 259 0
DWIDTH 7 0
BBX 4 22 2 0
BITMAP
30
60
C0
00
C0
C0
C0
C0
C0
C0
C0
C0
C0
C0
C0
C0
C0
C0
C0
C0
C0
C0
ENDCHAR
STARTCHAR Icircumflex
ENCODING 235
SWIDTH 555 0
DWIDTH 15 0
BBX 13 22 1 0
BITMAP
18C0
0D80
0700
0000
FFF8
FFF8
0038
0070
00E0
01C0
0380
0380
0700
0E00
1C00
3800
3800
7000
E000
C000
FFF8
FFF8
ENDCHAR
STARTCHAR Idieresis
ENCODING 236
SWIDTH 444 0
DWIDTH 12 0
BBX 10 17 1 0
BITMAP
6300
3600
1C00
0000
FFC0
FFC0
0180
0300
0700
0E00
1C00
1800
3800
7000
E000
FFC0
FFC0
ENDCHAR
STARTCHAR Igrave
ENCODING 237
SWIDTH 629 0
DWIDTH 17 0
BBX 13 21 2 0
BITMAP
7FF0
7FF0
0000
C018
C018
C018
C018
C018
C018
C018
C018
C018
C018
C018
C018
C018
C018
6030
7070
3FE0
0F80
ENDCHAR
STARTCHAR Oacute
ENCODING 238
SWIDTH 703 0
DWIDTH 19 0
BBX 16 22 1 0
BITMAP
0060
00C0
0180
0000
07E0
1FF8
381C
700E
6006
C003
C003
C003
C003
C003
C003
C003
C003
6006
700E
381C
1FF8
07E0
ENDCHAR
STARTCHAR Ocircumflex
ENCODING 239
SWIDTH 703 0
DWIDTH 19 0
BBX 16 22 1 0
BITMAP
03C0
0660
0C30
0000
07E0
1FF8
381C
700E
6006
C003
C003
C003
C003
C003
C003
C003
C003
6006
700E
381C
1FF8
07E0
ENDCHAR
STARTCHAR apple
ENCODING 240
SWIDTH 481 0
DWIDTH 13 0
BBX 10 16 1 0
BITMAP
7F80
7F80
0000
C0C0
C0C0
C0C0
C0C0
C0C0
C0C0
C0C0
C0C0
C0C0
C1C0
63C0
7EC0
1CC0
ENDCHAR
STARTCHAR Ograve
ENCODING 241
SWIDTH 629 0
DWIDTH 17 0
BBX 13 22 2 0
BITMAP
0700
0880
0880
0880
C718
C018
C018
C018
C018
C018
C018
C018
C018
C018
C018
C018
C018
C018
6030
7070
3FE0
0F80
ENDCHAR
STARTCHAR Uacute
ENCODING 242
SWIDTH 629 0
DWIDTH 17 0
BBX 13 22 2 0
BITMAP
0180
0300
0600
0000
C018
C018
C018
C018
C018
C018
C018
C018
C018
C018
C018
C018
C018
C018
6030
7070
3FE0
0F80
ENDCHAR
STARTCHAR Ucircumflex
ENCODING 243
SWIDTH 481 0
DWIDTH 13 0
BBX 10 18 1 0
BITMAP
0C00
1200
1200
1200
0C00
C0C0
C0C0
C0C0
C0C0
C0C0
C0C0
C0C0
C0C0
C0C0
C1C0
63C0
7EC0
1CC0
ENDCHAR
STARTCHAR Ugrave
ENCODING 244
SWIDTH 629 0
DWIDTH 17 0
BBX 13 22 2 0
BITMAP
0630
0C60
18C0
0000
C018
C018
C018
C018
C018
C018
C018
C018
C018
C018
C018
C018
C018
C018
6030
7070
3FE0
0F80
ENDCHAR
STARTCHAR dotlessi
ENCODING 245
SWIDTH 481 0
DWIDTH 13 0
BBX 10 17 1 0
BITMAP
0CC0
1980
3300
0000
C0C0
C0C0
C0C0
C0C0
C0C0
C0C0
C0C0
C0C0
C0C0
C1C0
63C0
7EC0
1CC0
ENDCHAR
STARTCHAR circumflex
ENCODING 246
SWIDTH 629 0
DWIDTH 17 0
BBX 13 22 2 -4
BITMAP
C018
C018
C018
C018
C018
C018
C018
C018
C018
C018
C018
C018
C018
C018
6030
7070
3FE0
0F80
0100
0300
0340
0180
ENDCHAR
STARTCHAR tilde
ENCODING 247
SWIDTH 481 0
DWIDTH 13 0
BBX 10 17 1 -4
BITMAP
C0C0
C0C0
C0C0
C0C0
C0C0
C0C0
C0C0
C0C0
C0C0
C1C0
63C0
7EC0
1CC0
0100
0300
0340
0180
ENDCHAR
STARTCHAR macron
ENCODING 248
SWIDTH 592 0
DWIDTH 16 0
BBX 12 22 2 0
BITMAP
0180
0300
0600
0000
C030
C030
6060
6060
30C0
30C0
1980
1980
0F00
0F00
0600
0600
0600
0600
0600
0600
0600
0600
ENDCHAR
STARTCHAR breve
ENCODING 249
SWIDTH 444 0
DWIDTH 12 0
BBX 10 22 1 -5
BITMAP
0300
0600
0C00
0000
C0C0
C0C0
C0C0
6180
6180
6180
3300
3300
3300
1E00
1E00
1E00
0C00
0C00
0C00
1800
F800
E000
ENDCHAR
STARTCHAR dotaccent
ENCODING 250
SWIDTH 444 0
DWIDTH 12 0
BBX 10 23 1 -5
BITMAP
C000
C000
C000
C000
C000
C380
C700
CE00
DC00
F800
F000
F000
F800
DC00
CE00
C700
C380
C1C0
0000
1800
1800
0800
1000
ENDCHAR
STARTCHAR ring
ENCODING 251
SWIDTH 555 0
DWIDTH 15 0
BBX 13 21 1 0
BITMAP
0600
0600
0000
FFF8
FFF8
0038
0070
00E0
01C0
0380
0380
0700
0E00
1C00
3800
3800
7000
E000
C000
FFF8
FFF8
ENDCHAR
STARTCHAR cedilla
ENCODING 252
SWIDTH 481 0
DWIDTH 13 0
BBX 12 18 0 0
BITMAP
3000
3000
3000
3000
3000
3000
3000
3400
3C00
7800
F000
B000
3000
3000
3000
3000
3FF0
3FF0
ENDCHAR
STARTCHAR hungarumlaut
ENCODING 253
SWIDTH 444 0
DWIDTH 12 0
BBX 10 16 1 0
BITMAP
0C00
0C00
0000
FFC0
FFC0
0180
0300
0700
0E00
1C00
1800
3800
7000
E000
FFC0
FFC0
ENDCHAR
STARTCHAR ogonek
ENCODING 254
SWIDTH 629 0
DWIDTH 17 0
BBX 16 23 1 -5
BITMAP
07E0
1FF8
381C
700E
6006
C000
C000
C000
C000
C07F
C07F
C003
C003
6007
700F
381F
1FFB
07E3
0000
0180
0180
0080
0100
ENDCHAR
STARTCHAR caron
ENCODING 255
SWIDTH 259 0
DWIDTH 7 0
BBX 5 3 0 14
BITMAP
D8
70
20
ENDCHAR
ENDFONT
